<svg width="131" height="52" viewBox="0 0 131 52" fill="none" xmlns="http://www.w3.org/2000/svg">
<rect x="19.1243" y="1.39304" width="4.17392" height="24" transform="rotate(45 19.1243 1.39304)" fill="#834ADF"/>
<rect x="16.4785" y="4.39243" width="4.17392" height="24" transform="rotate(-45 16.4785 4.39243)" fill="#834ADF"/>
<rect x="28.9044" y="8.3179" width="4.17392" height="8.15811" fill="#834ADF"/>
<rect x="28.9044" y="4.42853" width="4.17392" height="2.65613" fill="#834ADF"/>
<rect x="28.9044" y="0.539154" width="4.17392" height="2.65613" fill="#834ADF"/>
<path d="M14.6486 25.6783V27.9001C13.3308 26.138 11.4767 25.2646 9.10171 25.2646C6.8033 25.2646 4.9186 26.0154 3.44762 27.517C1.97664 29.0187 1.24114 30.934 1.24114 33.2784C1.24114 35.5615 1.97664 37.4768 3.46294 39.0091C4.94925 40.5414 6.83395 41.3075 9.11704 41.3075C11.4921 41.3075 13.3461 40.4188 14.6639 38.6414V40.9551C14.6486 42.3495 14.2348 43.4987 13.4227 44.3874C12.6106 45.2761 11.4767 45.7205 10.0211 45.7205C7.84525 45.7358 6.28233 44.939 5.317 43.3301L2.43632 44.3874C3.95327 47.1302 6.4662 48.5092 9.95979 48.5092C12.3501 48.5092 14.2808 47.8044 15.7518 46.3947C17.2228 44.985 17.9583 43.1769 17.9583 40.9551V25.7396L14.6486 25.6783ZM9.62269 38.3809C8.12106 38.3809 6.87992 37.9059 5.91458 36.9559C4.94925 36.0059 4.45892 34.7954 4.45892 33.3244C4.45892 31.8534 4.93393 30.6582 5.89926 29.7235C6.86459 28.7888 8.09041 28.3138 9.59204 28.3138C11.0477 28.3138 12.2735 28.7888 13.2542 29.7388C14.2348 30.6889 14.7252 31.884 14.7252 33.3244C14.7252 34.7647 14.2348 35.9752 13.2542 36.9405C12.2735 37.9059 11.0477 38.3809 9.59204 38.3809H9.62269ZM28.0002 41.8745C30.4059 41.8745 32.3978 41.0777 33.9914 39.4994C35.5849 37.9212 36.3817 35.9446 36.3817 33.5695C36.3817 31.1945 35.5849 29.2179 33.9914 27.6396C32.3978 26.0614 30.3905 25.2799 27.9849 25.2799C25.5792 25.2799 23.5872 26.0767 21.9937 27.655C20.4001 29.2332 19.6033 31.2098 19.6033 33.5695C19.6033 35.9446 20.4001 37.9212 21.9937 39.4994C23.5872 41.0777 25.5792 41.8745 27.9849 41.8745H28.0002ZM27.9849 38.8865C26.4832 38.8865 25.2421 38.3809 24.2768 37.3696C23.3114 36.3583 22.8211 35.1018 22.8211 33.6002C22.8211 32.0679 23.3114 30.7961 24.2768 29.7848C25.2421 28.7735 26.4832 28.2679 27.9849 28.2679C29.4865 28.2679 30.7276 28.7735 31.7083 29.7848C32.6889 30.7961 33.1793 32.0679 33.1793 33.6002C33.1793 35.1018 32.6889 36.3583 31.7083 37.3696C30.7276 38.3809 29.4865 38.8865 27.9849 38.8865Z" fill="#834ADF"/>
<path d="M47.1179 41.8745C49.5849 41.8745 51.4849 40.9398 52.8027 39.0704V41.4608H56.0664V25.6783H52.8027V28.0687C51.4849 26.1993 49.5849 25.2646 47.1179 25.2646C44.8808 25.2646 43.0114 26.0614 41.5098 27.6396C40.0082 29.2179 39.2574 31.1945 39.2574 33.5542C39.2574 35.9292 40.0082 37.9059 41.5098 39.4841C43.0114 41.0624 44.8808 41.8591 47.1179 41.8591V41.8745ZM47.6542 38.9019C46.1526 38.9019 44.9115 38.3962 43.9461 37.3849C42.9808 36.3736 42.4905 35.0865 42.4905 33.5389C42.4905 31.9913 42.9655 30.7195 43.9308 29.7235C44.8961 28.7275 46.122 28.2219 47.6236 28.2219C49.0793 28.2219 50.3051 28.7275 51.3164 29.7388C52.3277 30.7502 52.8333 32.0219 52.8333 33.5542C52.8333 35.1018 52.3277 36.3889 51.3164 37.4002C50.3051 38.4115 49.0639 38.9172 47.6083 38.9172L47.6542 38.9019ZM66.5 25.2646C64.1863 25.2646 62.3782 26.184 61.0757 28.0227V18.5532H57.7814V41.4608H61.0757V33.6155C61.0757 32.0219 61.4895 30.7502 62.3169 29.7848C63.1443 28.8195 64.2476 28.3445 65.6266 28.3445C66.8984 28.3445 67.8637 28.7429 68.5226 29.5243C69.1815 30.3058 69.5033 31.3937 69.5033 32.7881V41.4454H72.767V32.1905C72.767 30.03 72.2307 28.3292 71.1428 27.088C70.0549 25.8469 68.5073 25.234 66.5 25.234V25.2646ZM82.5754 41.8745C84.4601 41.8745 86.0537 41.4301 87.3561 40.5567C88.6585 39.6833 89.5932 38.626 90.1602 37.3849L87.1569 36.4962C86.3448 38.197 84.8432 39.0398 82.6673 39.0398C81.1197 39.0398 79.8786 38.626 78.9592 37.8139C78.0399 37.0018 77.5342 35.9292 77.427 34.5962H90.2521C90.3287 34.1212 90.3594 33.6768 90.3594 33.2784C90.3594 30.98 89.6392 29.08 88.1989 27.563C86.7585 26.0461 84.7972 25.2953 82.2996 25.2953C79.8939 25.2953 77.9326 26.092 76.431 27.6703C74.9294 29.2485 74.1785 31.2252 74.1785 33.6002C74.1785 36.0671 74.96 38.0744 76.5229 39.6067C78.0858 41.139 80.1084 41.9051 82.606 41.9051L82.5754 41.8745ZM77.427 32.4203C77.5495 31.2252 78.0552 30.2139 78.9439 29.3864C79.8326 28.559 80.9512 28.1453 82.3149 28.1453C83.7246 28.1453 84.8585 28.5437 85.7012 29.3405C86.544 30.1372 87.019 31.1639 87.1263 32.4203H77.427ZM99.7951 41.8745C102.262 41.8745 104.162 40.9398 105.48 39.0704V41.4608H108.744V25.6783H105.48V28.0687C104.162 26.1993 102.262 25.2646 99.7951 25.2646C97.558 25.2646 95.6886 26.0614 94.187 27.6396C92.6854 29.2179 91.9345 31.1945 91.9345 33.5542C91.9345 35.9292 92.6854 37.9059 94.187 39.4841C95.6886 41.0624 97.558 41.8591 99.7951 41.8591V41.8745ZM100.331 38.9019C98.8298 38.9019 97.5886 38.3962 96.6233 37.3849C95.658 36.3736 95.1676 35.0865 95.1676 33.5389C95.1676 31.9913 95.6426 30.7195 96.608 29.7235C97.5733 28.7275 98.7991 28.2219 100.301 28.2219C101.756 28.2219 102.982 28.7275 103.994 29.7388C105.005 30.7502 105.511 32.0219 105.511 33.5542C105.511 35.1018 105.005 36.3889 103.994 37.4002C102.982 38.4115 101.741 38.9172 100.285 38.9172L100.331 38.9019ZM123.792 18.5532V28.0687C122.475 26.1993 120.575 25.2646 118.108 25.2646C115.871 25.2646 114.001 26.0614 112.5 27.6396C110.998 29.2179 110.247 31.1945 110.247 33.5542C110.247 35.9292 110.998 37.9059 112.5 39.4841C114.001 41.0624 115.871 41.8591 118.108 41.8591C120.575 41.8438 122.475 40.9091 123.792 39.0551V41.4454H127.056V18.5379L123.792 18.5532ZM118.644 38.9019C117.142 38.9019 115.901 38.3962 114.936 37.3849C113.971 36.3736 113.48 35.0865 113.48 33.5389C113.48 31.9913 113.955 30.7195 114.921 29.7235C115.886 28.7275 117.112 28.2219 118.613 28.2219C120.069 28.2219 121.295 28.7275 122.306 29.7388C123.317 30.7502 123.823 32.0219 123.823 33.5542C123.823 35.1018 123.317 36.3889 122.306 37.4002C121.295 38.4115 120.054 38.9172 118.598 38.9172L118.644 38.9019Z" fill="#E2E2E2"/>
<path d="M79.288 7.288C80.0347 7.288 80.5787 7.43467 80.92 7.728C81.2613 8.02133 81.432 8.43467 81.432 8.968C81.432 9.20267 81.392 9.42933 81.312 9.648C81.2373 9.86133 81.112 10.0533 80.936 10.224C80.76 10.3947 80.5253 10.5307 80.232 10.632C79.9387 10.728 79.5787 10.776 79.152 10.776H78.496V13H77.776V7.288H79.288ZM79.224 7.904H78.496V10.16H79.072C79.4347 10.16 79.736 10.1227 79.976 10.048C80.216 9.968 80.3947 9.84267 80.512 9.672C80.6293 9.50133 80.688 9.27733 80.688 9C80.688 8.632 80.5707 8.35733 80.336 8.176C80.1013 7.99467 79.7307 7.904 79.224 7.904ZM87.6038 10.136C87.6038 10.5787 87.5478 10.9813 87.4358 11.344C87.3238 11.7013 87.1558 12.0107 86.9318 12.272C86.7131 12.5333 86.4384 12.7333 86.1078 12.872C85.7824 13.0107 85.4038 13.08 84.9718 13.08C84.5238 13.08 84.1344 13.0107 83.8038 12.872C83.4731 12.728 83.1984 12.528 82.9798 12.272C82.7611 12.0107 82.5984 11.6987 82.4918 11.336C82.3851 10.9733 82.3318 10.5707 82.3318 10.128C82.3318 9.54133 82.4278 9.02933 82.6198 8.592C82.8118 8.15467 83.1024 7.81333 83.4918 7.568C83.8864 7.32267 84.3824 7.2 84.9798 7.2C85.5504 7.2 86.0304 7.32267 86.4198 7.568C86.8091 7.808 87.1024 8.14933 87.2998 8.592C87.5024 9.02933 87.6038 9.544 87.6038 10.136ZM83.0918 10.136C83.0918 10.616 83.1584 11.0293 83.2918 11.376C83.4251 11.7227 83.6304 11.9893 83.9078 12.176C84.1904 12.3627 84.5451 12.456 84.9718 12.456C85.4038 12.456 85.7558 12.3627 86.0278 12.176C86.3051 11.9893 86.5104 11.7227 86.6438 11.376C86.7771 11.0293 86.8438 10.616 86.8438 10.136C86.8438 9.416 86.6944 8.85333 86.3958 8.448C86.0971 8.03733 85.6251 7.832 84.9798 7.832C84.5478 7.832 84.1904 7.92533 83.9078 8.112C83.6304 8.29333 83.4251 8.55733 83.2918 8.904C83.1584 9.24533 83.0918 9.656 83.0918 10.136ZM95.3516 7.288L93.8316 13H93.1036L91.9916 9.256C91.9596 9.144 91.9276 9.02933 91.8956 8.912C91.8636 8.79467 91.8343 8.68267 91.8076 8.576C91.781 8.46933 91.757 8.37867 91.7356 8.304C91.7196 8.224 91.709 8.16533 91.7036 8.128C91.6983 8.16533 91.6876 8.224 91.6716 8.304C91.661 8.37867 91.6423 8.46933 91.6156 8.576C91.589 8.68267 91.5596 8.79733 91.5276 8.92C91.501 9.03733 91.469 9.15733 91.4316 9.28L90.3516 13H89.6236L88.1116 7.288H88.8636L89.7516 10.776C89.7836 10.8987 89.813 11.0213 89.8396 11.144C89.8663 11.2613 89.8903 11.3787 89.9116 11.496C89.9383 11.608 89.9596 11.7173 89.9756 11.824C89.9916 11.9307 90.0076 12.0347 90.0236 12.136C90.0396 12.0293 90.0556 11.92 90.0716 11.808C90.093 11.696 90.117 11.5813 90.1436 11.464C90.1703 11.3413 90.1996 11.2187 90.2316 11.096C90.2636 10.9733 90.2956 10.8533 90.3276 10.736L91.3356 7.288H92.0796L93.1276 10.76C93.165 10.8827 93.1996 11.008 93.2316 11.136C93.2636 11.2587 93.293 11.3787 93.3196 11.496C93.3463 11.6133 93.3676 11.728 93.3836 11.84C93.405 11.9467 93.4236 12.0453 93.4396 12.136C93.4556 12.0027 93.477 11.864 93.5036 11.72C93.5303 11.5707 93.5623 11.416 93.5996 11.256C93.637 11.096 93.677 10.9333 93.7196 10.768L94.5996 7.288H95.3516ZM99.4211 13H96.2291V7.288H99.4211V7.92H96.9491V9.704H99.2771V10.328H96.9491V12.368H99.4211V13ZM102.25 7.288C102.725 7.288 103.114 7.34933 103.418 7.472C103.728 7.58933 103.957 7.768 104.106 8.008C104.256 8.248 104.33 8.54933 104.33 8.912C104.33 9.216 104.274 9.46933 104.162 9.672C104.05 9.87467 103.906 10.0373 103.73 10.16C103.56 10.2773 103.378 10.3707 103.186 10.44L104.754 13H103.914L102.53 10.64H101.394V13H100.674V7.288H102.25ZM102.21 7.912H101.394V10.032H102.25C102.56 10.032 102.813 9.992 103.01 9.912C103.208 9.82667 103.352 9.704 103.442 9.544C103.538 9.384 103.586 9.184 103.586 8.944C103.586 8.69333 103.536 8.49333 103.434 8.344C103.338 8.19467 103.189 8.08533 102.986 8.016C102.784 7.94667 102.525 7.912 102.21 7.912ZM108.843 13H105.651V7.288H108.843V7.92H106.371V9.704H108.699V10.328H106.371V12.368H108.843V13ZM114.672 10.088C114.672 10.728 114.552 11.264 114.312 11.696C114.078 12.128 113.739 12.4533 113.296 12.672C112.854 12.8907 112.318 13 111.688 13H110.096V7.288H111.856C112.432 7.288 112.931 7.39467 113.352 7.608C113.774 7.82133 114.099 8.136 114.328 8.552C114.558 8.96267 114.672 9.47467 114.672 10.088ZM113.912 10.112C113.912 9.60533 113.827 9.18933 113.656 8.864C113.491 8.53867 113.246 8.29867 112.92 8.144C112.6 7.984 112.211 7.904 111.752 7.904H110.816V12.384H111.592C112.366 12.384 112.944 12.1947 113.328 11.816C113.718 11.432 113.912 10.864 113.912 10.112ZM119.65 7.288C120.125 7.288 120.522 7.33333 120.842 7.424C121.168 7.51467 121.41 7.664 121.57 7.872C121.736 8.08 121.818 8.35733 121.818 8.704C121.818 8.928 121.776 9.128 121.69 9.304C121.61 9.47467 121.488 9.61867 121.322 9.736C121.162 9.848 120.965 9.92533 120.73 9.968V10.008C120.97 10.0453 121.186 10.1147 121.378 10.216C121.576 10.3173 121.73 10.4613 121.842 10.648C121.954 10.8347 122.01 11.0773 122.01 11.376C122.01 11.7227 121.93 12.0187 121.77 12.264C121.61 12.504 121.381 12.688 121.082 12.816C120.789 12.9387 120.437 13 120.026 13H118.018V7.288H119.65ZM119.794 9.72C120.285 9.72 120.621 9.64267 120.802 9.488C120.984 9.328 121.074 9.09333 121.074 8.784C121.074 8.46933 120.962 8.24533 120.738 8.112C120.52 7.97333 120.168 7.904 119.682 7.904H118.738V9.72H119.794ZM118.738 10.32V12.392H119.89C120.397 12.392 120.749 12.2933 120.946 12.096C121.144 11.8987 121.242 11.64 121.242 11.32C121.242 11.1173 121.197 10.9413 121.106 10.792C121.021 10.6427 120.874 10.528 120.666 10.448C120.464 10.3627 120.186 10.32 119.834 10.32H118.738ZM124.709 10.096L126.197 7.288H126.973L125.069 10.784V13H124.349V10.816L122.445 7.288H123.229L124.709 10.096Z" fill="white"/>
</svg>
